<svg width="312" height="56" viewBox="0 0 312 56" fill="none" xmlns="http://www.w3.org/2000/svg">
<circle cx="19.94" cy="24.8096" r="17.946" stroke="white" stroke-width="3.98801"/>
<circle cx="35.4933" cy="36.3748" r="12.7616" stroke="white" stroke-width="3.98801"/>
<path d="M70.2047 46V13.6568H82.6644C89.3067 13.6568 93.952 17.3904 93.952 23.8156C93.952 30.1974 89.2633 33.931 82.6644 33.931H75.6748V46H70.2047ZM75.6748 29.1555H82.6644C86.0941 29.1555 88.395 27.0282 88.395 23.8156C88.395 20.603 86.0941 18.4757 82.6644 18.4757H75.6748V29.1555ZM109.166 22.3396H111.336V27.0282H108.515C105.302 27.0282 103.131 29.1121 103.131 32.7588V46H97.9216V22.6H102.827V25.8561C104.043 23.2947 106.3 22.3396 109.166 22.3396ZM136.16 33.4535C136.16 34.2783 136.073 35.1032 135.899 35.7978H118.708C118.968 39.5314 121.703 41.9191 125.306 41.9191C128.085 41.9191 129.952 40.5733 130.994 38.6631L135.292 40.7469C133.859 44.0898 130.039 46.521 125.263 46.521C118.187 46.521 113.281 41.1377 113.281 34.2783C113.281 27.2453 118.273 22.0791 124.872 22.0791C131.471 22.0791 136.16 27.2453 136.16 33.4535ZM118.794 31.7603H130.56C130.386 28.6345 127.868 26.4204 124.872 26.4204C121.833 26.4204 119.402 28.3306 118.794 31.7603ZM137.646 46V41.7455L149.933 27.2887H138.211V22.6H156.792V26.8546L144.679 41.3113H156.835V46H137.646ZM168.888 46.521C164.026 46.521 160.032 44.0464 158.556 39.9655L162.593 38.0119C163.809 40.7904 166.11 42.2664 168.888 42.2664C171.233 42.2664 172.752 41.1811 172.752 39.5748C172.752 37.9685 171.102 37.2739 169.67 36.8831L165.676 35.8412C161.595 34.7124 159.554 32.3247 159.554 29.1555C159.554 24.9444 163.071 22.0791 168.237 22.0791C172.839 22.0791 176.486 24.38 177.918 28.1136L173.837 30.0238C172.969 27.8097 170.885 26.4639 168.237 26.4639C166.066 26.4639 164.721 27.4624 164.721 28.9384C164.721 30.4145 166.197 31.1525 167.543 31.5433L171.71 32.7154C175.748 33.8442 177.918 36.1885 177.918 39.4445C177.918 43.6557 174.228 46.521 168.888 46.521ZM192.468 46.521C185.609 46.521 180.182 41.3547 180.182 34.2783C180.182 27.2019 185.565 22.0791 192.468 22.0791C199.327 22.0791 204.754 27.2019 204.754 34.2783C204.754 41.3547 199.284 46.521 192.468 46.521ZM192.468 41.702C196.419 41.702 199.327 38.6197 199.327 34.3217C199.327 30.0238 196.419 26.898 192.468 26.898C188.474 26.898 185.609 30.0238 185.609 34.3217C185.609 38.6197 188.474 41.702 192.468 41.702ZM216.514 46V13.6568H221.984V41.1811H236.484V46H216.514ZM249.625 22.0791C255.312 22.0791 259.219 25.5088 259.219 30.3711V46H254.314V43.3952C252.577 45.479 250.189 46.521 247.367 46.521C242.158 46.521 238.858 43.5688 238.858 39.5748C238.858 36.1017 241.593 33.8008 246.325 32.7588L254.01 31.1091V30.3711C254.01 28.2004 252.23 26.7678 249.625 26.7678C247.107 26.7678 245.11 28.157 244.242 30.3711L239.727 28.1136C241.072 24.5537 244.98 22.0791 249.625 22.0791ZM247.975 42.3967C251.448 42.3967 254.01 39.8787 254.01 36.5792V35.0598L247.367 36.5358C245.414 36.97 244.285 38.0987 244.285 39.5314C244.285 41.3113 245.718 42.3967 247.975 42.3967ZM276.071 22.0791C282.669 22.0791 287.879 27.3755 287.879 34.3217C287.879 41.2245 282.713 46.521 276.027 46.521C272.815 46.521 269.993 45.3488 268.299 43.2215V46H263.394V13.6568H268.603V25.1614C270.253 23.2078 272.901 22.0791 276.071 22.0791ZM275.506 41.702C279.5 41.702 282.452 38.6197 282.452 34.3217C282.452 30.0238 279.5 26.898 275.506 26.898C271.469 26.898 268.603 30.0238 268.603 34.3217C268.603 38.6631 271.469 41.702 275.506 41.702ZM300.444 46.521C295.581 46.521 291.587 44.0464 290.111 39.9655L294.149 38.0119C295.364 40.7904 297.665 42.2664 300.444 42.2664C302.788 42.2664 304.307 41.1811 304.307 39.5748C304.307 37.9685 302.658 37.2739 301.225 36.8831L297.231 35.8412C293.15 34.7124 291.11 32.3247 291.11 29.1555C291.11 24.9444 294.626 22.0791 299.792 22.0791C304.394 22.0791 308.041 24.38 309.474 28.1136L305.393 30.0238C304.524 27.8097 302.441 26.4639 299.792 26.4639C297.622 26.4639 296.276 27.4624 296.276 28.9384C296.276 30.4145 297.752 31.1525 299.098 31.5433L303.265 32.7154C307.303 33.8442 309.474 36.1885 309.474 39.4445C309.474 43.6557 305.783 46.521 300.444 46.521Z" fill="white"/>
</svg>
